<?xml version="1.0" encoding="utf-8"?>
<!-- Generator: Adobe Illustrator 27.6.1, SVG Export Plug-In . SVG Version: 6.00 Build 0)  -->
<svg version="1.1" id="MI_Logo" xmlns="http://www.w3.org/2000/svg" xmlns:xlink="http://www.w3.org/1999/xlink" x="0px" y="0px"
	 viewBox="0 0 1366 290.77" style="enable-background:new 0 0 1366 290.77;" xml:space="preserve">
<style type="text/css">
	.st0{fill:#09192F;}
</style>
<g>
	<polygon class="st0" points="1035.12,207.84 959.49,129.39 939.75,129.4 939.75,228.65 956.55,228.65 956.55,150.2 1031.57,228.7 
		1051.4,228.82 1051.4,122.7 1035.12,143.28 	"/>
	<polygon class="st0" points="1254.9,170.82 1182.63,170.82 1182.63,188 1254.9,187.92 	"/>
	<polygon class="st0" points="1182.63,152.9 1199.23,152.9 1199.23,146.7 1280.53,146.63 1299.63,129.32 1182.6,129.32 	"/>
	<polygon class="st0" points="167.99,207.76 92.44,129.39 72.38,129.4 72.38,231.6 89.6,214.65 89.41,150.1 164.51,228.7 
		184.28,228.65 184.28,129.38 167.99,129.38 	"/>
	<polygon class="st0" points="190.21,146.81 237.52,146.81 237.52,228.83 254.23,228.83 254.23,146.81 301.66,146.81 301.66,129.32 
		190.21,129.32 	"/>
	<polygon class="st0" points="446.81,211.21 446.81,129.32 430.1,129.32 430.1,228.72 537.89,228.82 518.96,211.21 	"/>
	<polygon class="st0" points="563.24,211.21 563.24,129.32 546.53,129.32 546.53,228.72 654.32,228.82 635.3,211.21 	"/>
	<polygon class="st0" points="777.47,146.81 807.05,129.15 686.26,129.15 686.35,228.72 797.74,228.72 797.74,170.56 739.6,170.58 
		766.24,187.9 781.03,187.92 781.03,211.16 703.06,211.16 703.06,146.81 	"/>
	<polygon class="st0" points="1075.91,211.33 1075.91,146.7 1157.22,146.63 1176.3,129.32 1059.28,129.43 1059.28,228.82 
		1176.31,228.65 1157.22,211.33 	"/>
	<polygon class="st0" points="1199.23,211.33 1199.23,201.99 1182.63,201.99 1182.6,228.65 1299.62,228.65 1280.53,211.33 	"/>
	<polygon class="st0" points="886.04,170.82 813.76,170.82 813.76,188 886.04,187.92 	"/>
	<polygon class="st0" points="813.76,152.9 830.36,152.9 830.36,146.7 911.67,146.63 930.76,129.32 813.73,129.32 	"/>
	<polygon class="st0" points="830.36,211.33 830.36,201.99 813.76,201.99 813.73,228.65 930.76,228.65 911.67,211.33 	"/>
	<polygon class="st0" points="380.29,170.82 308.01,170.82 308.01,188 380.29,187.92 	"/>
	<polygon class="st0" points="308.01,152.9 324.61,152.9 324.61,146.7 405.92,146.63 425.01,129.32 307.98,129.32 	"/>
	<polygon class="st0" points="324.61,211.33 324.61,201.99 308.01,201.99 307.98,228.65 425,228.65 405.92,211.33 	"/>
	<polygon class="st0" points="63.66,129.4 37.91,129.4 46.44,135.81 46.73,216.01 63.7,231.96 63.7,159.17 63.71,158.93 
		63.7,158.93 	"/>
	<polygon class="st0" points="673.22,129.4 647.48,129.4 656,135.81 656.29,216.01 673.26,231.96 673.26,159.17 673.27,158.93 
		673.26,158.93 	"/>
	<polygon class="st0" points="771.46,60.03 761.4,60.03 761.4,110.1 811.15,110.1 811.15,100.09 771.46,100.09 	"/>
	<polygon class="st0" points="556.21,109.96 556.21,63.98 559.27,59.99 545.68,60.01 518.16,97.26 490.85,60.02 476.98,60.02 
		480.23,63.84 480.23,109.96 490.21,109.96 490.21,76.15 515.12,109.96 521.19,109.96 546.23,76.08 546.23,109.96 	"/>
	<path class="st0" d="M573.6,109.9v0.05h0.47c0.07,0,0.13,0.02,0.2,0.02s0.13-0.02,0.2-0.02h42.05v-0.05
		c5.42-0.12,9.77-4.5,9.84-9.93h0.01v-0.08c0-0.02,0.01-0.04,0.01-0.05c0-0.02-0.01-0.04-0.01-0.06V60.03h-10.7v17.53h0.01v16.17
		h-0.05c-0.16,3.6-3.04,6.48-6.65,6.62c-0.02,0-0.04,0.01-0.07,0.01c-0.07,0-0.14,0.02-0.21,0.02l-1.06-0.01l1.06,0
		c0.07,0,0.14-0.02,0.21-0.02h-27.32c0.09,0.01,0.17,0.03,0.26,0.03l1.02-0.01l-1.02,0.01c-0.09,0-0.17-0.02-0.26-0.03
		c-0.12-0.01-0.24-0.02-0.36-0.03c-3.35-0.3-6-2.96-6.28-6.32h-0.04v-0.4c0-0.06-0.02-0.12-0.02-0.18c0-0.06,0.02-0.12,0.02-0.19
		v-2.26c0,0-0.01,0-0.01,0V60.03h-10.7v39.58c0,0.09-0.03,0.18-0.03,0.27C564.18,105.22,568.35,109.55,573.6,109.9z"/>
	<path class="st0" d="M709.26,109.91l44.22,0.01v-9.85h-21.8v0.01h-15.05v-0.05c-3.7-0.16-6.65-3.19-6.65-6.93l-0.01-16.62
		c0-3.64,2.81-6.6,6.37-6.9c0,0,0.6-0.04,0.74-0.04h0.03c0,0-0.01,0-0.01,0c0,0,0.01,0,0.01,0l36.37-0.01V60
		c0,0-44.03-0.03-44.12-0.03c-5.34,0-9.67,4.17-10.02,9.42v30.68C699.46,105.49,703.83,109.84,709.26,109.91z"/>
	<path class="st0" d="M817.47,110.08h50.94c0-0.25-4.52-9.99-4.52-9.99H828.1V87.8h25.52v-8.75h-25.5v-9.49h36.04l4-9.76h-55.48
		l4.79,5.07V110.08z"/>
	<polygon class="st0" points="1304.29,130.9 1308.06,130.9 1308.06,141.23 1310.69,141.23 1310.69,130.9 1314.45,130.9 
		1314.45,128.67 1304.29,128.67 	"/>
	<path class="st0" d="M1324.31,128.67l-2.27,9.87l-2.28-9.87h-3.82v12.55h2.44v-8.49c0-0.24,0-0.59-0.01-1.03
		c-0.01-0.44-0.01-0.78-0.01-1.01l2.36,10.53h2.55l2.38-10.53c0,0.24-0.01,0.57-0.01,1.01c-0.01,0.44-0.01,0.78-0.01,1.03v8.49h2.44
		v-12.55H1324.31z"/>
	<path class="st0" d="M693.88,94.8c0-8.71-7.06-15.78-15.78-15.78c-0.18,0-0.35,0.02-0.52,0.04v-0.02l-0.47,0c-0.01,0-0.01,0-0.01,0
		c-2.16-0.06-4.31-0.07-6.47-0.07h-1.46h-6.23l-15.83-0.08c-2.19-0.23-3.9-1.98-4.05-4.2c-0.01-0.1-0.03-0.2-0.03-0.3
		c0-2.45,1.94-4.43,4.36-4.54v-0.01h0.11c0.03,0,0.05-0.01,0.08-0.01c0.03,0,0.06,0.01,0.08,0.01h3.78h35.53l3.59-9.8
		c-13.31,0-25.17-0.2-37.54-0.01h-7.42v0.01c-3.51,0.02-6.68,1.37-9.12,3.52c-0.05,0.04-0.1,0.08-0.14,0.12
		c-0.45,0.37-0.82,0.81-1.2,1.24c-0.25,0.28-0.5,0.56-0.72,0.87c-1.69,2.31-2.72,5.13-2.72,8.22c0,7.72,6.86,14.05,14.58,14.05
		c0.04,0,0.08-0.01,0.12-0.01l3.25,0c0.07,0,0.14,0.01,0.21,0.01c0.73,0.02,2.31,0.01,4.14-0.01l23.48,0.02
		c0.12,0.02,0.24,0.03,0.36,0.06c3.04,0.29,5.43,2.83,5.43,5.95c0,0.5-0.08,0.97-0.19,1.43c-0.65,2.62-3,4.57-5.82,4.57
		c-0.29,0-0.56-0.04-0.83-0.08l-0.02,0.09l-37.53,0.03l-3.71,9.85c0,0,43.55,0.04,43.72,0.01
		C687.07,109.94,693.88,103.28,693.88,94.8z"/>
</g>
</svg>
